<?xml version="1.0" encoding="UTF-8" standalone="no"?>
<svg
   xmlns:dc="http://purl.org/dc/elements/1.1/"
   xmlns:cc="http://creativecommons.org/ns#"
   xmlns:rdf="http://www.w3.org/1999/02/22-rdf-syntax-ns#"
   xmlns:svg="http://www.w3.org/2000/svg"
   xmlns="http://www.w3.org/2000/svg"
   xmlns:sodipodi="http://sodipodi.sourceforge.net/DTD/sodipodi-0.dtd"
   xmlns:inkscape="http://www.inkscape.org/namespaces/inkscape"
   width="70.132027mm"
   height="108.20532mm"
   viewBox="0 0 70.132027 108.20532"
   version="1.1"
   id="svg8"
   inkscape:version="1.0.2 (e86c870, 2021-01-15)"
   sodipodi:docname="cloaker.svg">
  <defs
     id="defs2" />
  <sodipodi:namedview
     id="base"
     pagecolor="#ffffff"
     bordercolor="#666666"
     borderopacity="1.0"
     inkscape:pageopacity="0.0"
     inkscape:pageshadow="2"
     inkscape:zoom="1.4"
     inkscape:cx="12.17103"
     inkscape:cy="189.82295"
     inkscape:document-units="mm"
     inkscape:current-layer="layer1"
     inkscape:document-rotation="0"
     showgrid="false"
     fit-margin-top="0"
     fit-margin-left="0"
     fit-margin-right="0"
     fit-margin-bottom="0"
     inkscape:window-width="1920"
     inkscape:window-height="1015"
     inkscape:window-x="0"
     inkscape:window-y="178"
     inkscape:window-maximized="1" />
  <metadata
     id="metadata5">
    <rdf:RDF>
      <cc:Work
         rdf:about="">
        <dc:format>image/svg+xml</dc:format>
        <dc:type
           rdf:resource="http://purl.org/dc/dcmitype/StillImage" />
        <dc:title></dc:title>
      </cc:Work>
    </rdf:RDF>
  </metadata>
  <g
     inkscape:label="Layer 1"
     inkscape:groupmode="layer"
     id="layer1"
     transform="translate(-57.8634,-53.902346)">
    <path
       style="fill:#000000;stroke-width:0.264583"
       d="m 117.21308,161.93121 c -2.70858,-0.22405 -7.97996,-0.98406 -10.98021,-1.5831 -1.81901,-0.3632 -3.78354,-0.71485 -4.36562,-0.78146 -0.58209,-0.0666 -1.22863,-0.18146 -1.43677,-0.25524 -0.60382,-0.21402 -4.98354,-1.16766 -5.91595,-1.28815 -0.46716,-0.0604 -2.39718,-0.40922 -4.28895,-0.77524 -12.16852,-2.35435 -20.48728,-2.24662 -27.1963,0.35221 -1.13348,0.43906 -2.47145,1.0773 -2.97326,1.41829 -1.17862,0.80088 -2.08385,0.75684 -2.18397,-0.10626 -0.0588,-0.50723 0.16896,-0.79358 1.09146,-1.37202 2.39201,-1.49988 4.99841,-4.92979 6.99001,-9.19853 1.00581,-2.15582 2.62479,-6.33607 2.83597,-7.32254 0.0559,-0.26126 0.40262,-1.34524 0.77042,-2.40886 0.3678,-1.06362 0.74255,-2.42882 0.83278,-3.03378 0.0902,-0.60496 0.2588,-1.28254 0.37461,-1.50573 0.1158,-0.22319 0.41509,-1.35831 0.66509,-2.52247 0.25,-1.16417 0.79009,-3.60495 1.20021,-5.42396 0.41011,-1.81901 1.12199,-5.21229 1.58195,-7.54062 0.45997,-2.32834 1.12275,-5.54303 1.47285,-7.14375 0.3501,-1.60073 0.70477,-3.32714 0.78816,-3.83646 0.0834,-0.50933 0.45453,-2.11667 0.82476,-3.57188 0.37023,-1.45521 0.72471,-2.92024 0.78773,-3.25563 0.063,-0.33539 0.40721,-1.526021 0.76487,-2.645831 0.35765,-1.11982 0.65179,-2.18976 0.65365,-2.37766 0.006,-0.65824 2.66494,-7.0847 3.68943,-8.91879 0.569,-1.018646 1.63929,-2.526009 2.37842,-3.349694 0.73912,-0.823685 1.34386,-1.567825 1.34386,-1.653646 0,-0.08582 -0.59531,-0.156035 -1.32291,-0.156035 h -1.32292 v -9.260416 c 0,-5.093229 0.0298,-9.349713 0.0662,-9.458854 0.0364,-0.109141 0.52664,-0.200943 1.08947,-0.204006 l 1.02333,-0.0056 0.57341,-1.988044 c 0.31537,-1.093424 2.04587,-3.543909 2.57459,-4.126975 0.52873,-0.583066 1.378144,-1.169782 1.85209,-1.389248 0.449654,-0.208217 1.277812,-0.64182 1.97117,-0.87518 0.972124,-0.327183 1.41838,-0.526485 3.29372,-0.417924 1.33185,0.0771 3.208118,0.827228 3.41723,0.923636 0.62314,0.287294 1.69539,0.893392 2.81432,2.044661 1.27961,1.316587 2.45395,3.589124 2.56736,4.968242 0.0679,0.825294 0.1244,0.869866 1.0561,0.832671 l 0.9844,-0.0393 v 9.498152 9.498152 h -1.24433 -1.24432 l 0.93504,0.992187 c 1.59441,1.691863 3.34482,4.630781 4.48337,7.527551 0.30311,0.77117 0.70515,1.75932 0.89342,2.19589 0.76432,1.77225 3.2593,10.456221 3.46017,12.043371 0.0524,0.41451 0.39299,2.04151 0.75675,3.61555 1.03326,4.47116 2.28106,10.4878 2.27979,10.99273 -0.001,0.43174 0.71999,3.74291 2.26264,10.39001 0.37149,1.60073 0.71784,3.14854 0.76965,3.43958 0.0518,0.29105 0.35223,1.42214 0.66759,2.51355 0.31536,1.0914 0.69167,2.40109 0.83624,2.91041 1.19126,4.19678 2.54952,7.67993 4.37195,11.2115 l 1.21163,2.34795 -0.45174,0.94732 c -0.24846,0.52103 -0.92694,2.20288 -1.50774,3.73746 -0.58079,1.53458 -1.21033,3.03002 -1.39897,3.32319 -0.18865,0.29318 -0.4276,0.91826 -0.53101,1.38907 l -0.18801,0.85601 -2.82325,-0.0445 c -1.55279,-0.0245 -3.2995,-0.0839 -3.88158,-0.13201 z m 4.36562,-1.63745 c 0,-0.0518 -0.55159,-1.06382 -1.22576,-2.24896 -3.30148,-5.80375 -3.38933,-6.03292 -2.4958,-6.51112 0.28272,-0.15131 2.16604,-0.27389 4.20789,-0.27389 h 3.69611 l -0.74287,-1.38907 c -2.47398,-4.62602 -4.71135,-11.75957 -7.1159,-22.68802 -1.72915,-7.85881 -2.22493,-10.22653 -2.32691,-11.1125 -0.0586,-0.50932 -0.40953,-2.23573 -0.77981,-3.83645 -0.37027,-1.60073 -0.72676,-3.32714 -0.7922,-3.83646 -0.0654,-0.50933 -0.40653,-2.0069 -0.75799,-3.32795 -0.35146,-1.32105 -0.70852,-2.80933 -0.79347,-3.30729 -0.0849,-0.49796 -0.45393,-1.917421 -0.81996,-3.154341 -0.65553,-2.21528 -0.98302,-3.21111 -2.00122,-6.08542 -1.43365,-4.04708 -4.28061,-8.554859 -6.34949,-10.053541 l -1.0966,-0.794374 h -5.94355 c -5.55967,0 -6.00568,0.03594 -6.90561,0.556538 -1.52368,0.881417 -3.75587,3.690884 -5.22274,6.573417 -1.18581,2.33022 -3.54144,8.73772 -3.89589,10.59712 -0.0693,0.36381 -0.38483,1.554431 -0.70106,2.645841 -0.31623,1.0914 -0.62171,2.34156 -0.67885,2.77812 -0.0571,0.43656 -0.46488,2.25034 -0.9061,4.03061 -0.44122,1.78028 -0.80222,3.46092 -0.80222,3.73476 0,0.27384 -0.31145,1.85335 -0.69212,3.51001 -0.38067,1.65667 -0.73679,3.36931 -0.79138,3.80587 -0.2571,2.05606 -2.60129,12.34199 -3.85916,16.93333 -1.91121,6.97619 -3.65382,11.38053 -6.17635,15.61042 -0.86782,1.45521 -1.61268,2.72053 -1.65524,2.81181 -0.0426,0.0913 0.98445,-0.10981 2.28224,-0.44688 1.71832,-0.44631 3.50911,-0.66339 6.58906,-0.79874 l 4.22944,-0.18587 0.70747,-1.44249 c 0.3891,-0.79337 0.88216,-2.23503 1.09568,-3.2037 0.81839,-3.71278 1.38101,-6.53924 1.37757,-6.92059 -0.002,-0.21828 0.30708,-2.71859 0.68678,-5.55625 0.3797,-2.83765 0.75234,-6.21437 0.82809,-7.50381 0.0757,-1.28943 0.43598,-4.83647 0.80053,-7.88229 0.36454,-3.04582 0.66222,-6.03895 0.66151,-6.6514 -0.002,-1.87274 1.57358,-11.22014 2.53273,-15.024011 1.25717,-4.98579 2.95043,-8.31452 3.652,-7.17935 0.0711,0.11502 -0.19914,0.7401 -0.6005,1.38906 -0.75857,1.2265 -2.40793,5.72669 -2.40793,6.569861 0,0.26567 -0.29568,1.81985 -0.65707,3.45374 -0.36138,1.63388 -0.72439,3.82481 -0.80668,4.86872 -0.0823,1.04392 -0.25885,2.55287 -0.39235,3.35323 -0.43579,2.61272 -1.03277,7.75926 -1.1509,9.92188 -0.15974,2.9244 -1.38756,14.03744 -2.04627,18.52083 -0.96607,6.57539 -1.07166,7.10241 -1.98791,9.92188 -0.49654,1.52796 -0.93112,2.95671 -0.96571,3.175 -0.0512,0.32333 0.47641,0.4314 2.84751,0.58321 1.60073,0.10248 3.56526,0.30075 4.36563,0.4406 1.61003,0.28133 2.02019,0.0937 2.26985,-1.03856 1.00958,-4.57849 0.98971,-4.15111 1.03904,-22.34255 0.0264,-9.74989 0.126,-18.50098 0.22125,-19.44687 0.0953,-0.94588 0.23884,-2.77671 0.31911,-4.0685 0.17044,-2.74299 0.45005,-4.34585 1.17812,-6.75353 0.64591,-2.135991 0.88611,-2.529721 1.41864,-2.325371 0.36489,0.14001 0.34756,0.30904 -0.14605,1.424931 -0.30802,0.69634 -0.77048,2.47842 -1.02769,3.96017 -1.00594,5.7952 -1.11484,8.2793 -1.07679,24.56334 0.0416,17.80631 -0.15269,22.81081 -0.96824,24.94055 -0.63714,1.66385 -0.54881,1.75737 1.93213,2.04548 0.87313,0.1014 2.89719,0.47695 4.49792,0.83456 1.60073,0.35761 3.23502,0.69439 3.63175,0.74839 0.39673,0.054 1.38844,0.23668 2.20379,0.40595 0.81536,0.16927 1.51601,0.26759 1.55701,0.2185 0.041,-0.0491 -0.091,-1.10129 -0.29334,-2.33822 -0.2598,-1.58818 -0.4408,-6.87444 -0.61602,-17.99167 -0.28068,-17.80719 -0.59656,-25.14942 -1.32042,-30.69166 -0.52937,-4.05312 -0.88911,-5.61723 -1.48889,-6.47354 -0.42517,-0.607011 -0.47853,-1.363551 -0.11215,-1.589981 0.2669,-0.16495 1.37099,1.739481 1.52232,2.625841 0.0484,0.28349 0.2551,1.17646 0.45934,1.98437 0.56704,2.24319 0.91709,5.11178 1.05098,8.61268 0.34082,8.9114 0.4619,13.23895 0.70328,25.13542 0.27101,13.35639 0.68066,20.15425 1.25634,20.84789 0.3374,0.40655 1.43654,0.6895 3.4282,0.88254 0.62386,0.0605 1.9322,0.2772 2.90744,0.48162 0.97524,0.20443 1.82145,0.32339 1.88048,0.26436 0.059,-0.059 -0.082,-0.61599 -0.31332,-1.2377 -0.23136,-0.62171 -0.48528,-1.5471 -0.56428,-2.05642 -0.079,-0.50932 -0.44401,-2.77151 -0.81117,-5.02708 -0.36715,-2.25558 -0.78097,-5.58933 -0.91961,-7.40834 -0.13864,-1.81901 -0.54309,-5.9862 -0.89878,-9.26041 -0.35569,-3.27422 -0.6597,-6.57492 -0.67558,-7.33489 -0.0159,-0.75996 -0.31903,-3.73653 -0.67367,-6.61458 -0.35464,-2.87805 -0.71612,-6.18206 -0.80328,-7.34224 -0.0872,-1.16018 -0.43717,-3.6605 -0.7778,-5.55625 -0.34062,-1.89576 -0.6864,-3.98262 -0.7684,-4.63746 -0.17708,-1.41432 -1.67413,-6.730351 -2.16076,-7.672911 -0.18783,-0.3638 -0.59377,-0.95077 -0.9021,-1.30438 -0.57424,-0.65858 -0.60655,-1.10153 -0.0928,-1.27277 0.75593,-0.25198 2.66323,3.73982 3.38049,7.07506 1.17213,5.450311 3.05249,18.117301 3.04611,20.519971 -0.002,0.59019 0.30278,3.80488 0.67631,7.14375 0.37354,3.33886 0.72875,7.08269 0.78936,8.31961 0.24141,4.9268 1.8708,17.53794 2.65492,20.54846 0.1957,0.75139 0.41557,1.69565 0.4886,2.09837 0.20805,1.1473 0.65307,1.38167 3.06088,1.612 2.28684,0.21875 5.82083,0.2922 5.82083,0.12098 z m 2.41515,-3.34755 c 1.45398,-3.30061 1.56452,-3.60262 1.41008,-3.85251 -0.19225,-0.31107 -5.5963,-0.32697 -5.78785,-0.017 -0.17357,0.28085 3.07121,5.86669 3.35804,5.78082 0.11263,-0.0337 0.57151,-0.8938 1.01973,-1.91128 z M 105.7037,72.281666 v -7.540625 h -9.78958 -9.78959 v 7.540625 7.540625 h 9.78959 9.78958 z m -12.40474,2.725227 -0.89537,-0.573151 0.99212,-0.909214 c 1.0419,-0.954829 0.9515,-1.362234 -0.30422,-1.371103 -1.15245,-0.0081 -1.40673,-0.247925 -1.08006,-1.018479 0.48013,-1.132549 0.60521,-1.173763 1.8042,-0.594474 1.37799,0.665771 1.37188,0.665329 1.21338,0.08755 -0.0699,-0.254661 -0.20234,-0.909505 -0.2944,-1.455208 l -0.16739,-0.992187 h 1.10734 1.10734 l -0.15019,1.455208 c -0.0826,0.800364 -0.0945,1.455208 -0.0265,1.455208 0.068,0 0.60939,-0.247772 1.20299,-0.550603 1.20328,-0.613865 1.53681,-0.470355 1.62216,0.697957 0.0516,0.707078 -0.0347,0.780945 -1.21307,1.037273 l -1.26869,0.275979 0.95264,0.923322 0.95262,0.923319 -0.74227,0.594021 c -0.40826,0.32671 -0.82916,0.594611 -0.93535,0.595334 -0.10618,7.22e-4 -0.43602,-0.474935 -0.73298,-1.057019 -0.29696,-0.582083 -0.63848,-1.058333 -0.75894,-1.058333 -0.12047,0 -0.43379,0.47625 -0.69627,1.058333 -0.26248,0.582084 -0.54846,1.056328 -0.63549,1.053875 -0.087,-0.0024 -0.56117,-0.262374 -1.05363,-0.577606 z M 90.06202,61.830625 c 0.1744,-0.582083 2.1171,-3.269282 3.36408,-3.859584 1.65035,-0.781247 3.74227,-0.838731 5.26615,-0.14471 1.46227,0.665969 2.96719,2.411743 3.33368,3.867213 0.26975,1.071257 0.38019,1.195414 1.06335,1.195414 0.58595,0 0.19545,-1.609744 0.0152,-2.28369 -0.45492,-1.700899 -2.81041,-3.970373 -4.70751,-4.535593 -2.08281,-0.620554 -4.880301,0.229698 -5.607638,0.735185 -0.137192,0.09535 -0.215626,0.126025 -0.380744,0.270544 -0.894938,0.783291 -3.365898,2.823815 -3.756898,4.908036 -0.15487,0.825513 -0.11407,0.905518 0.46169,0.905518 0.5076,0 0.69381,-0.207748 0.94865,-1.058333 z m 10.19393,0.753122 c -0.61609,-2.373122 -1.73408,-3.186792 -4.26608,-3.104822 -1.51487,0.04904 -1.86041,0.159724 -2.64256,0.84646 -0.85395,0.749782 -1.76033,2.116919 -1.54579,2.331591 0.12463,0.1247 8.48701,0.05227 8.45443,-0.07323 z"
       id="path72"
       sodipodi:nodetypes="cssscssscsscscssssssscccsssscssccccssssscscccccssccccssssscssssccccsssscsscscsccsscscscscsssscscsscsscscscsccssssssscsscccsssscsssssssscsssscssscsscsssscscscsscscssssssssssssscccccccccccscsscccccssscsccccssssccccsssscsssssscssscs" />
  </g>
</svg>
